<svg viewBox="0 0 128 150" xmlns="http://www.w3.org/2000/svg" xmlns:xlink="http://www.w3.org/1999/xlink">
  <g fill="none" fill-rule="evenodd">
    <path d="M0,110.526316 C0,117.513158 3.12,123.710526 8,128.052632 L8,142.105263 C8,146.447368 11.6,150 16,150 L24,150 C28.44,150 32,146.447368 32,142.105263 L32,134.210526 L96,134.210526 L96,142.105263 C96,146.447368 99.56,150 104,150 L112,150 C116.4,150 120,146.447368 120,142.105263 L120,128.052632 C124.88,123.710526 128,117.513158 128,110.526316 L128,31.5789474 C128,3.94736842 99.36,0 64,0 C28.64,0 0,3.94736842 0,31.5789474 L0,110.526316 L0,110.526316 Z M28,118.421053 C21.36,118.421053 16,113.131579 16,106.578947 C16,100.026316 21.36,94.7368421 28,94.7368421 C34.64,94.7368421 40,100.026316 40,106.578947 C40,113.131579 34.64,118.421053 28,118.421053 L28,118.421053 Z M100,118.421053 C93.36,118.421053 88,113.131579 88,106.578947 C88,100.026316 93.36,94.7368421 100,94.7368421 C106.64,94.7368421 112,100.026316 112,106.578947 C112,113.131579 106.64,118.421053 100,118.421053 L100,118.421053 Z M112,71.0526316 L16,71.0526316 L16,31.5789474 L112,31.5789474 L112,71.0526316 L112,71.0526316 Z" fill-opacity="0.5" fill="#FFF"></path>
  </g>
</svg>
