<svg xmlns="http://www.w3.org/2000/svg" xmlns:xlink="http://www.w3.org/1999/xlink" viewBox="0 0 256 256">
  <defs><rect id="a" width="256" height="256" rx="30" /></defs>
  <g fill="none" fill-rule="evenodd">
    <mask id="b" fill="white"><use xlink:href="#a"/></mask>
    <use stroke="#26BFA6" fill="#26BFA6" xlink:href="#a"/>
    <path d="M74.29 200.76L130.25 256.01 256.15 256.01 256.15 136.23 184.39 65.14 77.52 73.2 71.9 156.16 74.29 200.76Z" opacity="0.25" fill="#000000" mask="url(#b)"/>
    <path d="M64 163.53C64 170.51 67.12 176.71 72 181.05L72 195.11C72 199.45 75.6 203 80 203L88 203C92.44 203 96 199.45 96 195.11L96 187.21 160 187.21 160 195.11C160 199.45 163.56 203 168 203L176 203C180.4 203 184 199.45 184 195.11L184 181.05C188.88 176.71 192 170.51 192 163.53L192 84.58C192 56.95 163.36 53 128 53 92.64 53 64 56.95 64 84.58L64 163.53 64 163.53ZM92 171.42C85.36 171.42 80 166.13 80 159.58 80 153.03 85.36 147.74 92 147.74 98.64 147.74 104 153.03 104 159.58 104 166.13 98.64 171.42 92 171.42L92 171.42ZM164 171.42C157.36 171.42 152 166.13 152 159.58 152 153.03 157.36 147.74 164 147.74 170.64 147.74 176 153.03 176 159.58 176 166.13 170.64 171.42 164 171.42L164 171.42ZM176 124.05L80 124.05 80 84.58 176 84.58 176 124.05 176 124.05Z" fill="#FFFFFF" mask="url(#b)"/>
  </g>
</svg>
