<svg viewBox="0 0 69 81" xmlns="http://www.w3.org/2000/svg" xmlns:xlink="http://www.w3.org/1999/xlink">
  <g fill="none" fill-rule="evenodd">
    <path d="M-25,-18 L437,-18 L437,101.94 L-25,101.94 L-25,-18 Z" fill="none"></path>
    <path d="M33.001,8 C29.535,9.216 27,10.258 27,16.886 L27,20.067 L29.077,19.651 L29.077,16.903 C29.028,12.409 30.193,11.469 33.226,10.158 C33.208,9.311 33.135,8.59 33.001,8" fill="#fff"></path>
    <path d="M39,6.23569846 C39.14,6.87969846 39.244,7.57669846 39.321,8.32769846 C44.746,7.54769846 44.647,9.78669846 44.647,14.4616985 L44.647,16.1846985 L46.701,15.7636985 L46.701,14.4616985 C46.701,7.20069846 45.564,5.25669846 39,6.23569846" fill="#fff"></path>
    <path d="M18.081,21.3473943 L18.081,11.7983943 C18.015,5.87939431 21.072,4.06539431 26.706,2.75039431 C35.205,0.758394312 35.743,6.23039431 35.743,9.71539431 L35.743,17.8103943 L37.825,17.3943943 L37.825,9.89439431 C37.804,3.30139431 35.747,-1.63460569 26.297,0.506394312 C21.204,1.66039431 16,2.95839431 16,11.5993943 L16,21.7593943 L18.081,21.3473943" fill="#fff"></path>
    <path d="M42.547,46.938 L26.046,46.938 L26.046,34.92 L42.547,32.581 L42.547,46.938 L42.547,46.938 Z M42.547,62.837 L26.046,60.493 L26.046,47.893 L42.547,47.893 L42.547,62.837 L42.547,62.837 Z M25.099,46.938 L12.291,46.938 L12.291,36.807 L25.099,35.02 L25.099,46.938 L25.099,46.938 Z M25.099,60.397 L12.291,58.61 L12.291,47.893 L25.099,47.893 L25.099,60.397 L25.099,60.397 Z M57.157,16 L0,27.425 L0,68.999 L57.157,80.433 L68.586,76.274 L68.586,20.157 L57.157,16 L57.157,16 Z" fill="#fff"></path>
  </g>
</svg>
